<!--?xml version="1.0" standalone="no"?-->
              <svg id="sw-js-blob-svg" viewBox="0 0 100 100" xmlns="http://www.w3.org/2000/svg" version="1.1">
                    <defs> 
                        <linearGradient id="sw-gradient" x1="0" x2="1" y1="1" y2="0">
                            <stop id="stop1" stop-color="rgba(255, 255, 255, 1)" offset="0%"></stop>
                            <stop id="stop2" stop-color="rgba(255, 233.718, 0, 1)" offset="100%"></stop>
                        </linearGradient>
                    </defs>
                <path fill="url(#sw-gradient)" d="M26.8,-36.2C34.1,-31.6,39,-22.9,41.2,-13.9C43.4,-4.9,42.8,4.4,39.6,12.5C36.4,20.5,30.6,27.3,23.6,33.2C16.5,39.1,8.3,44.2,-0.7,45.2C-9.7,46.1,-19.3,43,-25.3,36.7C-31.4,30.5,-33.8,21.1,-36.4,12.1C-39,3,-41.9,-5.8,-39.7,-12.9C-37.4,-20.1,-30.1,-25.7,-22.6,-30.3C-15.1,-34.8,-7.6,-38.5,1.1,-40C9.7,-41.5,19.5,-40.9,26.8,-36.2Z" width="100%" height="100%" transform="translate(50 50)" stroke-width="0" style="transition: all 0.3s ease 0s;"></path>
              </svg>